Coordinates
version=1
nRows=10
nColumns=22
inDegrees=yes

Units are S.I. units (second, meters, Newtons, ...)
If the header above contains a line with 'inDegrees', this indicates whether rotational values are in degrees (yes) or radians (no).

endheader
time	pelvis_tilt	pelvis_list	pelvis_rotation	pelvis_tx	pelvis_ty	pelvis_tz	hip_flexion_r	hip_adduction_r	hip_rotation_r	knee_angle_r	ankle_angle_r	subtalar_angle_r	hip_flexion_l	hip_adduction_l	hip_rotation_l	knee_angle_l	ankle_angle_l	subtalar_angle_l	lumbar_extension	lumbar_bending	lumbar_rotation
      3.65000000	     -7.56771936	     -1.54731447	    -61.53297919	      0.09988713	      0.95577991	      0.83328120	     25.92878093	      3.74436530	    -17.23288890	    -24.27535472	     -1.44149757	     -1.13575931	     -0.83276099	    -11.69948257	      5.42128190	    -39.06104506	      7.75980581	     11.22929093	      0.71223830	      6.34739680	    -14.12189649
      3.66000000	     -7.66736105	     -1.52382613	    -61.69000786	      0.10060540	      0.95679256	      0.83998440	     25.51958571	      4.07492240	    -17.13364086	    -24.14800173	     -1.07147187	     -1.17917588	      0.28879870	    -11.78531749	      5.58914068	    -41.14934762	      6.89522049	     10.90089002	      0.75578424	      6.44126318	    -14.06371864
      3.67000000	     -7.74200284	     -1.46860140	    -61.84218679	      0.10130519	      0.95772501	      0.84644494	     25.13632872	      4.35547516	    -17.03993884	    -24.01823211	     -0.68849905	     -1.23762819	      1.44402987	    -11.80114366	      5.81580910	    -43.18456560	      6.18552110	     10.29522364	      0.80305507	      6.49668357	    -14.01540107
      3.68000000	     -7.85336262	     -1.43957236	    -62.02212629	      0.10193674	      0.95861366	      0.85273427	     24.73911054	      4.69093083	    -16.93820407	    -23.85001515	     -0.36931074	     -1.29666452	      2.58646027	    -11.84841161	      6.05140807	    -45.13000969	      5.68656987	      9.71628796	      0.82983444	      6.60587849	    -13.90695393
      3.69000000	     -7.96007080	     -1.40698639	    -62.22748845	      0.10252215	      0.95944649	      0.85882358	     24.35060849	      5.02190301	    -16.82140251	    -23.67440548	     -0.06768723	     -1.36266072	      3.70756933	    -11.86374213	      6.30524882	    -46.93630147	      5.37652996	      9.08750125	      0.84171499	      6.71326511	    -13.74351895
      3.70000000	     -8.06686212	     -1.36668017	    -62.45035288	      0.10306514	      0.96022669	      0.86470420	     23.97114456	      5.35385917	    -16.67353006	    -23.47848901	      0.19836714	     -1.42632995	      4.80776082	    -11.84524338	      6.58803122	    -48.57293330	      5.29221539	      8.48952192	      0.84811885	      6.81911559	    -13.54928859
      3.71000000	     -8.15780264	     -1.32326042	    -62.70768166	      0.10355833	      0.96096559	      0.87039942	     23.60364382	      5.67171380	    -16.50944913	    -23.29703545	      0.47057824	     -1.49333570	      5.86060372	    -11.78580199	      6.86382783	    -50.01101032	      5.38136041	      7.87132628	      0.83485735	      6.90941539	    -13.28865784
      3.72000000	     -8.23533908	     -1.27009228	    -62.98110719	      0.10402776	      0.96168592	      0.87590490	     23.23506067	      5.97882403	    -16.30077351	    -23.08924707	      0.70994669	     -1.54812315	      6.86941626	    -11.67701067	      7.16398161	    -51.22950090	      5.65598132	      7.34556851	      0.81624181	      6.98351414	    -12.99807426
      3.73000000	     -8.28821645	     -1.21400020	    -63.27450623	      0.10449521	      0.96240156	      0.88124148	     22.86422925	      6.26099061	    -16.06479423	    -22.88306339	      0.94940629	     -1.59196553	      7.81438373	    -11.51635727	      7.46676564	    -52.21552899	      6.08172510	      6.88217864	      0.78392279	      7.03512436	    -12.67127944
      3.74000000	     -8.31924390	     -1.17407431	    -63.59595264	      0.10494481	      0.96313857	      0.88644606	     22.47157232	      6.53175032	    -15.80788989	    -22.67671492	      1.19146461	     -1.62285862	      8.67024376	    -11.32666218	      7.75593075	    -52.96253019	      6.66626565	      6.58290516	      0.72158893	      7.07339405	    -12.29573902
